<?xml version="1.0" standalone="no"?>
<!DOCTYPE svg PUBLIC "-//W3C//DTD SVG 20010904//EN"
 "http://www.w3.org/TR/2001/REC-SVG-20010904/DTD/svg10.dtd">
<svg version="1.0" xmlns="http://www.w3.org/2000/svg"
 width="168.000000pt" height="168.000000pt" viewBox="0 0 168.000000 168.000000"
 preserveAspectRatio="xMidYMid meet">
<metadata>
Created by potrace 1.11, written by Peter Selinger 2001-2013
</metadata>
<g transform="translate(0.000000,168.000000) scale(0.100000,-0.100000)"
fill="#000000" stroke="none">
<path d="M0 840 l0 -840 840 0 840 0 0 840 0 840 -840 0 -840 0 0 -840z m912
698 c55 -16 119 -76 151 -141 15 -30 34 -97 43 -148 9 -51 27 -115 40 -141 28
-56 31 -122 8 -158 -10 -14 -33 -42 -53 -63 l-36 -38 0 -112 c1 -220 81 -397
201 -443 94 -36 175 0 210 93 21 55 34 55 34 -2 0 -57 -22 -110 -63 -153 -60
-63 -118 -79 -223 -62 -177 28 -281 141 -364 393 -19 59 -37 96 -43 94 -7 -2
-32 -53 -57 -113 -82 -195 -145 -287 -234 -339 -127 -74 -285 -42 -362 74 -27
42 -41 108 -29 138 5 14 13 6 36 -40 41 -79 75 -100 157 -94 106 8 180 75 221
200 40 119 53 290 27 352 -8 18 -32 56 -54 84 -57 72 -62 114 -24 194 20 42
31 85 36 134 12 145 81 252 185 289 46 17 142 18 193 2z m-601 -717 c23 -22
39 -48 39 -62 l0 -23 -28 27 c-58 56 -124 42 -138 -28 -15 -81 55 -145 158
-145 66 0 116 31 160 98 l30 47 -7 -69 c-9 -87 -26 -145 -55 -186 -22 -31 -24
-32 -79 -25 -177 20 -261 101 -261 252 0 63 3 75 27 103 51 62 100 65 154 11z
m1163 -1 c25 -24 30 -39 34 -90 12 -163 -74 -251 -264 -275 -48 -6 -53 -5 -72
22 -30 42 -50 110 -57 193 -6 74 -6 75 11 45 62 -112 166 -151 267 -99 33 17
67 69 67 102 0 31 -25 78 -46 86 -24 9 -81 -12 -99 -37 -23 -32 -31 -10 -11
28 37 69 115 80 170 25z"/>
<path d="M547 1072 c-19 -21 -21 -45 -7 -73 16 -29 75 -26 95 5 37 57 -43 118
-88 68z"/>
<path d="M1010 1070 c-24 -24 -25 -38 -4 -68 20 -29 79 -31 94 -3 15 29 12 56
-8 74 -25 23 -58 21 -82 -3z"/>
</g>
</svg>
